<?xml version="1.0" encoding="utf-8"?>
<!-- Svg Vector Icons : http://www.onlinewebfonts.com/icon -->
<!DOCTYPE svg PUBLIC "-//W3C//DTD SVG 1.1//EN" "http://www.w3.org/Graphics/SVG/1.1/DTD/svg11.dtd">
<svg version="1.1" xmlns="http://www.w3.org/2000/svg" xmlns:xlink="http://www.w3.org/1999/xlink" x="0px" y="0px" viewBox="0 0 256 256" enable-background="new 0 0 256 256" xml:space="preserve">
<metadata> Svg Vector Icons : http://www.onlinewebfonts.com/icon </metadata>
<g><g><g><path fill="#000000" d="M94.4,14.1c-7.2,1.2-13.2,6.2-21,17.4c-4.8,6.9-7.3,9.5-10.3,11.1c-1,0.5-5.4,2.1-9.8,3.6c-10.1,3.3-14.6,5.5-18.3,9.2c-3.2,3.2-4.9,6.2-6.3,11.2c-0.8,3-1,5.3-1.1,14.4C27.5,86.9,27.2,92.8,27,94c-0.6,2.4-2.9,6.1-8.2,13.2c-5.5,7.4-8.2,13.2-8.7,19.1c-0.6,6.8,2.1,13.4,9.5,23.5c8,10.9,8,11,8,22.4c-0.1,16.3,1.5,22.5,7.5,28.4c3.7,3.7,8.2,5.9,18.1,9.1c4.3,1.4,8.9,3.1,10.1,3.7c2.9,1.5,5.5,4.3,10.5,11.6c7.7,11,13.5,15.6,21.4,16.8c4.8,0.8,9.1,0,19.2-3.2c13.3-4.3,13.8-4.3,27.1,0c10.1,3.3,14.4,4,19.2,3.2c7.9-1.2,13.4-5.5,21.2-16.6c8-11.4,8.1-11.4,23.5-16.4c10.1-3.3,16.6-7.7,19.6-13.6c2.6-5,3.1-8.5,3.3-20.3c0.1-6.5,0.3-11.7,0.7-12.9c0.7-2.8,1.8-4.6,7.4-12.2c12.8-17.5,12.8-26.3,0-43.8c-5.6-7.6-6.7-9.5-7.4-12.2c-0.3-1.2-0.6-6.5-0.7-12.9c-0.1-9.1-0.3-11.4-1.1-14.4c-1.3-5-3-8-6.3-11.2c-4.1-4.1-8.1-6-21-10.1c-9.3-3-10.5-3.9-17.5-13.8c-8.3-11.8-13.7-16.1-21.7-17.3c-4.9-0.7-9.3,0-19.4,3.4c-8.3,2.8-8.7,2.8-13.4,2.9c-4.7,0-5.1-0.1-12.9-2.7C104.1,13.9,100,13.2,94.4,14.1z M112.5,24.7c14.6,4.8,16.6,4.8,31.1,0c8.3-2.8,8.9-2.9,13.5-2.9c4.5,0,5,0,7.2,1.2c4,2.3,6.7,5.2,14.3,15.9c3.3,4.7,7.6,8.9,10.6,10.4c1.3,0.6,5,2,8.3,3.1c16,5.2,19.3,7.2,22,14.3c0.9,2.4,1.1,3.8,1.3,15c0.5,16.4,0.6,17,8.7,27.9c7.1,9.5,8.8,13.1,8.8,18.5c0,5.4-1.8,9.2-9.3,19.2c-7.5,10.1-7.7,11-8.2,26.9c-0.4,13-0.6,14.6-3,18.6c-2.4,4.1-6.4,6.3-18.1,10.1c-4.3,1.4-8.9,3.1-10.1,3.7c-4.5,2.3-7.8,5.7-13.6,14.2c-3.7,5.5-8.4,10.4-11.5,12.2c-2.3,1.2-2.8,1.3-7.3,1.3c-4.7,0-5.2-0.1-13.6-2.9c-14.6-4.8-16.4-4.8-31.1,0c-8.3,2.8-8.8,2.9-13.5,2.9c-4.1,0-5.1-0.1-6.7-1c-4.3-2.3-7.5-5.7-13.2-14.1c-3.9-5.8-8.5-10.5-11.8-12.3c-1.5-0.8-6.3-2.6-10.7-4c-11.9-3.9-15.9-6.1-18.2-10.1c-2.5-4.2-2.6-5.3-3-18.5c-0.4-16.5-0.5-16.7-9.5-28.9c-2.4-3.2-5.1-7.3-6-9.2c-1.5-2.9-1.8-3.9-1.9-7.2c-0.3-6.1,1.1-9.3,8.6-19.5c4.3-5.8,6.8-10.2,7.9-13.6c0.3-1.1,0.7-7,0.9-14.3c0.3-11.2,0.5-12.7,1.3-15c2.7-6.8,6.7-9.5,21.3-14.1c10.9-3.4,13.8-5.6,21.5-16.4c8.9-12.5,12.3-14.9,20.2-14.6C103.2,21.8,105,22.2,112.5,24.7z"/><path fill="#000000" d="M126.7,35.5c-0.2,0.3-1.1,1.8-1.8,3.4l-1.4,2.9l-2.7,0.3c-3.7,0.4-4.8,0.7-4.8,1.3c0,0.3,1.2,1.7,2.5,3.1l2.5,2.5l-0.5,3.1c-0.8,4.7-0.6,4.9,3.4,2.9l3.3-1.8l3.3,1.7c1.8,0.9,3.5,1.5,3.6,1.3c0.2-0.2,0.1-1.9-0.3-3.9l-0.6-3.6l2.5-2.4c1.3-1.3,2.4-2.7,2.4-3c0-0.6-1-0.9-4.7-1.3l-2.6-0.3l-1.6-3.2C127.6,34.9,127.4,34.6,126.7,35.5z"/><path fill="#000000" d="M79.7,51.1l0.2,3.8L77.2,57c-1.5,1.2-2.6,2.4-2.6,2.8c0,0.4,1.4,1,3.5,1.6l3.4,0.9l1.2,3.3c0.6,1.8,1.5,3.4,1.8,3.4c0.3,0,1.4-1.3,2.4-3l1.9-3h2.9c2.9,0,4.9-0.4,4.9-0.9c0-0.1-1.1-1.6-2.4-3.1L92,56.1l0.9-3.4c0.6-1.8,1-3.6,1-3.7c0-0.5-1.4-0.2-4.9,1.1l-2.8,1.1l-2.8-1.9C79.5,46.5,79.4,46.6,79.7,51.1z"/><path fill="#000000" d="M170.7,49.8l-3,2l-3.3-1.3c-2-0.8-3.5-1.2-3.8-1c-0.2,0.2,0,1.8,0.6,3.7c0.5,1.8,0.8,3.6,0.6,3.9c-0.2,0.3-1.3,1.7-2.4,3c-1.2,1.5-1.9,2.6-1.7,2.9c0.2,0.2,2,0.5,3.9,0.6l3.5,0.1l1.9,3c1.1,1.7,2.2,3,2.5,3c0.3,0,1.1-1.3,1.7-3c1.4-3.6,1.6-4,3.5-4.3c3.4-0.7,5-1.3,5-1.9c0-0.3-1.2-1.6-2.8-2.8l-2.7-2.2l0.3-3.6c0.1-2.1,0.1-3.7-0.2-3.8C174,48,172.5,48.7,170.7,49.8z"/><path fill="#000000" d="M118.6,65.1c-14,2.3-26.1,8.4-35.7,18.1c-19.2,19.4-24,48.7-11.8,73.1c8.9,17.9,25.3,30.3,45.2,34.3c5.6,1.1,17.8,1.1,23.3,0c26-5.2,45.7-24.9,50.9-50.9c0.6-2.9,0.8-6.3,0.8-11.7c0-5.4-0.2-8.8-0.8-11.7c-5.1-25.6-24.3-45.2-49.6-50.6C135.1,64.5,124.3,64.1,118.6,65.1z M139.3,73.2c22.2,4.3,40,22.6,43.9,45.1c0.9,4.9,0.9,14.5,0,19.5c-3.9,22.5-21.6,40.6-44,45.1c-6.6,1.3-15.6,1.3-22.2,0c-22-4.5-39.3-21.8-43.8-43.8c-2-10-1-22,2.6-31.2C85.9,82.1,112.1,67.8,139.3,73.2z"/><path fill="#000000" d="M87.4,130.6v11.8h4.8c2.6,0,5.3-0.2,5.9-0.5c1.8-0.8,2.4-2.5,2.4-6.2c0-3.6-0.8-5.3-2.7-5.3c-0.8,0-0.7-0.1,0.5-0.9c3.5-2.1,3.2-8.4-0.5-10c-1.1-0.5-3.2-0.7-6-0.7h-4.4V130.6L87.4,130.6z M94.5,122.8c0.8,0.8,1,3.5,0.3,4.8c-0.3,0.5-1,0.9-1.6,0.9c-1.1,0-1.2-0.1-1.2-2.9c0-1.6,0.1-3.1,0.3-3.2C92.9,121.8,93.8,122,94.5,122.8z M94.5,132.4c0.8,0.8,1,4.4,0.3,5.8c-0.3,0.5-1,0.9-1.6,0.9c-1.1,0-1.2-0.1-1.2-3.4c0-1.9,0.1-3.6,0.3-3.7C92.9,131.5,93.8,131.7,94.5,132.4z"/><path fill="#000000" d="M104,130.5v11.8h2.5h2.5V137c0-4.9,0-5.3,0.9-5.3c1.8,0,2.4,1.2,2.4,5.3c0,5.3,0,5.3,3.2,5.3h2.6l-0.1-4.5c-0.2-5.3-0.9-7.3-2.6-7.8l-1.2-0.3l1.4-0.9c1.9-1.2,2.7-3.9,1.9-6.4c-0.8-2.9-2.1-3.4-8.2-3.6l-5.2-0.1V130.5L104,130.5z M111.3,122.8c1.3,0.9,1.4,3.5,0,4.8c-1.4,1.4-2,0.9-2.2-1.9C108.9,122,109.4,121.4,111.3,122.8z"/><path fill="#000000" d="M124.6,119.6c-0.1,0.5-1,5.3-1.9,10.7c-0.9,5.4-1.8,10.4-1.8,10.9c-0.2,1-0.1,1.1,2,1.1c2.2,0,2.3,0,2.5-1.4c0.1-0.8,0.4-2,0.6-2.8c0.2-1.2,0.5-1.4,1.8-1.4c1.4,0,1.6,0.1,1.6,1.3c0,0.7,0.1,2,0.3,2.8c0.3,1.4,0.3,1.4,3,1.4c2.6,0,2.7,0,2.5-1.1c-0.1-0.6-0.7-5.3-1.4-10.5c-1.7-13.5-1-12-5.3-12C125.4,118.8,124.8,118.9,124.6,119.6z M128.5,130.4c0.2,2.5,0.1,2.7-0.8,2.7c-0.9,0-1.1-0.2-0.9-1.3c0.1-0.7,0.3-2.9,0.5-4.9l0.3-3.7l0.4,2.3C128.2,126.7,128.5,129,128.5,130.4z"/><path fill="#000000" d="M137.2,130.6v11.8h2.5h2.5l0-9.6l0-9.5l1.8,8.5c1,4.7,1.9,9,2,9.5c0.2,1,0.5,1.1,3.7,1.1h3.5v-11.8v-11.8h-2.1h-2.1l-0.1,8.4l-0.1,8.4l-1.5-7.6c-0.8-4.2-1.6-8-1.8-8.4c-0.2-0.6-0.8-0.8-4.4-0.8h-4.1L137.2,130.6L137.2,130.6z"/><path fill="#000000" d="M155.7,130.5v11.8h5.1c5.4,0,6.8-0.4,8.5-2.3c0.8-0.9,0.9-1.8,1.1-8.3c0.2-11.7-0.4-12.6-9.2-12.9l-5.5-0.2V130.5z M164.2,122.8c0.6,0.6,0.7,2,0.7,8c0,7.5-0.2,8.3-1.9,8.3c-0.8,0-0.8-0.6-0.8-8.5c0-7.1,0.1-8.5,0.6-8.5C163.1,122,163.8,122.3,164.2,122.8z"/><path fill="#000000" d="M56.2,77.3c-4.1,4.7-3.3,4.2-7.4,4.2c-2.5-0.1-3.8,0-3.8,0.4c0,0.3,0.8,1.8,1.8,3.2c1,1.5,1.8,3,1.8,3.2c0,0.3-0.6,1.8-1.2,3.6c-0.7,1.8-1.1,3.2-0.8,3.4c0.3,0.3,1.6,0.1,3.4-0.5c1.7-0.5,3.2-0.9,3.5-0.9c0.3,0,1.7,1,3.1,2.1c3.4,2.9,4,2.6,4-1.8v-3.4l3-1.9c1.7-1.1,3-2.2,3-2.5c0-0.3-1.5-1.2-3.4-1.8l-3.4-1.2l-0.8-3.4c-0.5-1.9-1-3.6-1.2-3.7C57.7,76,56.9,76.5,56.2,77.3z"/><path fill="#000000" d="M194.5,80.8l-0.9,3.5l-3,1.1c-4.7,1.8-4.7,2-1.1,4.3l3.1,2l0.2,3.7c0.1,2.5,0.4,3.7,0.8,3.7c0.3,0,1.8-1,3.2-2.2l2.6-2.1l3.6,1c1.9,0.5,3.7,0.8,3.9,0.6c0.1-0.2-0.3-1.7-0.9-3.5c-0.7-1.7-1.2-3.4-1.2-3.7c0-0.3,0.8-1.8,1.8-3.4c1.1-1.5,1.8-3,1.6-3.2c-0.2-0.3-1.5-0.4-3.8-0.2l-3.6,0.3l-2.2-2.8c-1.2-1.6-2.4-2.8-2.8-2.8C195.7,77.3,195.1,78.6,194.5,80.8z"/><path fill="#000000" d="M40,118c-0.3,0.3-0.6,2-0.8,3.7l-0.3,3.1l-3.3,1.8c-1.8,0.9-3.3,1.9-3.4,2.2c-0.1,0.3,1.3,1.2,3.1,2.1c3.5,1.7,3.5,1.7,3.9,5.6c0.5,4.2,0.7,4.2,3.9,1.2l2.7-2.7l3,0.5c5.3,0.9,5.4,0.7,3-3.7l-1.6-2.9l1.6-2.9c2-3.6,2-4.6,0.2-4.2c-0.7,0.1-2.4,0.4-3.7,0.6l-2.4,0.3l-2.6-2.6C41.1,117.9,40.4,117.5,40,118z"/><path fill="#000000" d="M209.8,121.3l-2.7,2.7l-3.6-0.6c-2-0.3-3.7-0.5-3.9-0.3c-0.1,0.2,0.5,1.8,1.5,3.6l1.8,3.4l-1.8,3.1c-1.1,1.9-1.6,3.3-1.3,3.6c0.3,0.3,1.8,0.2,4-0.1l3.5-0.6l2.5,2.7c1.6,1.8,2.6,2.6,3,2.3c0.2-0.2,0.7-2,1-3.9l0.5-3.5l3.2-1.5c1.8-0.9,3.2-1.8,3.2-2.2c0-0.3-1.4-1.3-3.2-2.2c-1.8-0.9-3.2-1.8-3.2-2c0-1.3-1.1-6.4-1.4-6.7C212.6,118.8,211.4,119.7,209.8,121.3z"/><path fill="#000000" d="M56,161.7l-2.6,2.3l-3.2-0.9c-1.8-0.6-3.4-1-3.7-1c-0.8,0-0.6,1.1,0.7,4.3l1.2,3l-1.9,2.8c-2.8,4.1-2.7,4.4,1.9,4.1l3.8-0.3l2.1,2.8c1.2,1.6,2.4,2.7,2.7,2.7c0.4-0.1,1-1.4,1.5-3.3c0.5-1.7,1-3.3,1.2-3.6c0.2-0.2,1.7-0.8,3.3-1.5c1.7-0.6,3.1-1.3,3.2-1.6c0.1-0.3-1.2-1.4-2.8-2.4l-3-1.9l-0.3-3.9c-0.2-2.4-0.6-3.9-0.9-3.9C58.8,159.4,57.4,160.4,56,161.7z"/><path fill="#000000" d="M192.6,162.9c0,4.7-0.3,5.3-3.5,7.2c-3.9,2.3-3.8,2.6,1.3,4.5c2.4,0.8,2.7,1.1,3.1,2.6c0.2,0.9,0.7,2.6,1,3.6c0.3,1.1,0.7,2,0.9,2c0.2,0,1.4-1.2,2.6-2.8l2.2-2.8h3.8c2.6,0,3.8-0.2,3.8-0.6c0-0.3-0.8-1.8-1.8-3.4l-1.8-2.8l1.2-3c1.8-4.3,1.5-4.6-2.8-3.5l-3.5,0.9l-2.6-2.1C193.1,160.2,192.6,160.2,192.6,162.9z"/><path fill="#000000" d="M82.9,189.4c-0.2,0.3-0.9,1.9-1.5,3.6l-1.2,3l-3.2,0.8c-3.3,0.8-4.5,1.5-3.7,2.2c0.3,0.2,1.6,1.3,3,2.4l2.4,2l-0.2,3.6c-0.1,2,0,3.7,0.2,3.9c0.2,0.2,1.8-0.6,3.5-1.8l3.1-2.1l3.2,1.3c1.8,0.7,3.4,1.3,3.6,1.3c0.6,0,0.5-1.3-0.4-4.7l-0.8-3l2.2-2.6c2.9-3.5,2.7-4-1.8-4h-3.5l-2.1-3.2c-1.2-1.8-2.2-3.2-2.3-3.2C83.4,188.9,83.2,189.2,82.9,189.4z"/><path fill="#000000" d="M166,192.8c-1.8,2.9-1.9,3-3.9,3c-3,0-5.5,0.5-5.5,1.1c0,0.2,1,1.6,2.2,3l2.2,2.5l-0.6,2.6c-1.1,4.7-1.1,5.1-0.5,5.1c0.3,0,2-0.6,3.7-1.2l3.1-1.2l2.9,1.9c1.6,1.1,3.1,1.8,3.5,1.7c0.5-0.1,0.6-1.1,0.4-3.8l-0.2-3.6l2.8-2.2c1.6-1.2,2.8-2.4,2.7-2.8c-0.1-0.3-1.7-0.9-3.6-1.4l-3.5-0.8l-1.3-3.5c-0.7-1.9-1.5-3.4-1.8-3.4C168.1,189.8,167.1,191.2,166,192.8z"/><path fill="#000000" d="M118.8,203.5c0,0.4,0.2,2.1,0.5,3.7l0.5,3l-2.7,2.7c-1.5,1.5-2.5,2.8-2.4,3c0.2,0.1,1.9,0.5,3.8,0.8l3.6,0.6l1.7,3.2c0.9,1.8,1.9,3.2,2.2,3.2c0.3,0,1.2-1.4,2.1-3.2l1.6-3.2l3.2-0.5c4.8-0.7,4.9-0.8,1.8-3.9l-2.7-2.7l0.3-2.4c0.2-1.3,0.5-3,0.6-3.7c0.3-1.8-0.4-1.8-4.2,0.1l-3,1.5l-2.7-1.5C119.9,202.5,118.8,202.4,118.8,203.5z"/></g></g></g>
</svg>